<?xml version="1.0" standalone="no"?>
<!DOCTYPE svg PUBLIC "-//W3C//DTD SVG 20010904//EN"
 "http://www.w3.org/TR/2001/REC-SVG-20010904/DTD/svg10.dtd">
<svg version="1.0" xmlns="http://www.w3.org/2000/svg"
 width="283.000000pt" height="283.000000pt" viewBox="0 0 283.000000 283.000000"
 preserveAspectRatio="xMidYMid meet">
<metadata>
Created by potrace 1.11, written by Peter Selinger 2001-2013
</metadata>
<g transform="translate(0.000000,283.000000) scale(0.100000,-0.100000)"
fill="#000000" stroke="none">
<path d="M153 2242 c-30 -2 -56 -9 -64 -18 -9 -12 -12 -194 -12 -825 0 -746 1
-811 17 -822 13 -9 308 -12 1332 -12 1421 0 1332 -3 1335 50 0 11 1 375 1 808
1 697 -1 790 -14 804 -14 13 -156 15 -1279 17 -695 0 -1287 0 -1316 -2z m2463
-145 l24 -28 0 -494 0 -494 -24 -28 -24 -28 -1154 -2 c-634 -1 -1168 0 -1186
3 -20 3 -39 15 -49 31 -16 25 -18 69 -19 512 0 520 1 532 49 550 12 5 548 8
1190 7 l1169 -1 24 -28z"/>
<path d="M568 1642 c-27 -2 -48 -6 -49 -10 -1 -9 -1 -332 0 -354 1 -17 51 -18
906 -18 l905 0 0 190 0 190 -22 0 c-222 3 -1706 4 -1740 2z m339 -26 c2 -1
-22 -3 -53 -4 -44 0 -63 -6 -90 -27 -20 -15 -37 -25 -40 -22 -8 8 73 55 102
59 27 4 75 0 81 -6z m1053 -6 c-8 -5 -22 -9 -30 -9 -10 0 -8 3 5 9 27 12 43
12 25 0z m56 -8 c-10 -2 -22 0 -28 6 -6 6 0 7 19 4 21 -5 23 -7 9 -10z m-1055
-13 c16 -11 34 -30 40 -42 10 -21 10 -21 -8 1 -10 12 -32 32 -48 42 -17 11
-26 20 -22 20 5 0 22 -9 38 -21z m925 -11 c-15 -12 -37 -35 -47 -52 -10 -17
-19 -25 -19 -19 0 17 69 93 84 93 6 0 -2 -10 -18 -22z m209 -20 c19 -22 19
-22 -10 2 -48 40 -51 43 -30 32 11 -6 29 -21 40 -34z m-1208 -12 c-6 -16 16
-28 37 -20 9 4 20 -6 31 -25 14 -28 14 -31 0 -31 -18 0 -20 -37 -2 -43 9 -3 9
-9 -2 -30 -11 -20 -19 -25 -36 -21 -17 4 -24 0 -28 -15 -7 -28 -70 -31 -65 -3
2 13 -3 17 -23 15 -19 -1 -30 6 -40 24 -11 21 -11 27 -1 30 6 3 12 13 12 23 0
10 -6 20 -12 23 -10 3 -10 9 1 30 10 18 21 25 40 24 20 -2 25 2 23 16 -2 14 4
17 34 17 27 0 35 -4 31 -14z m1116 5 c5 -1 5 -6 1 -12 -9 -16 18 -30 32 -18 9
8 17 3 27 -18 13 -24 13 -29 0 -39 -14 -9 -14 -12 -1 -25 21 -19 2 -62 -24
-56 -18 5 -42 -15 -31 -26 6 -7 -3 -9 -32 -9 -31 0 -37 2 -32 16 7 18 -17 28
-31 14 -7 -7 -16 -1 -28 18 -14 20 -15 29 -6 32 14 4 16 42 2 42 -10 0 -3 27
13 48 7 9 12 10 17 2 4 -6 14 -8 23 -4 9 3 14 11 11 16 -8 13 14 27 35 23 9
-2 20 -4 24 -4z m-1294 -22 c-6 -12 -15 -42 -19 -68 -6 -39 -8 -41 -9 -13 -1
32 22 102 34 102 3 0 1 -10 -6 -21z m1421 -20 c0 -6 -4 -7 -10 -4 -5 3 -10 11
-10 16 0 6 5 7 10 4 6 -3 10 -11 10 -16z m-1101 -59 c-1 -53 -6 -44 -12 24 -3
30 -1 43 4 35 5 -8 8 -34 8 -59z m788 -12 c-2 -13 -4 -5 -4 17 -1 22 1 32 4
23 2 -10 2 -28 0 -40z m320 10 c-3 -8 -6 -5 -6 6 -1 11 2 17 5 13 3 -3 4 -12
1 -19z m-1388 -121 c18 -15 28 -27 23 -27 -16 0 -82 79 -82 98 1 10 6 5 14
-13 7 -17 28 -43 45 -58z m1079 58 c-3 -3 -9 2 -12 12 -6 14 -5 15 5 6 7 -7
10 -15 7 -18z m-808 6 c0 -6 -11 -23 -25 -38 l-26 -28 23 37 c25 40 28 43 28
29z m835 -41 c10 -11 16 -20 13 -20 -3 0 -13 9 -23 20 -10 11 -16 20 -13 20 3
0 13 -9 23 -20z m-886 -34 c-2 -2 -15 -9 -29 -15 -24 -11 -24 -11 -6 3 16 13
49 24 35 12z m-143 -34 c-10 -2 -22 0 -28 6 -6 6 0 7 19 4 21 -5 23 -7 9 -10z
m1121 12 c-3 -3 -12 -4 -19 -1 -8 3 -5 6 6 6 11 1 17 -2 13 -5z m-1037 -8 c0
-2 -13 -6 -29 -8 -17 -2 -28 -1 -25 4 5 8 54 12 54 4z"/>
</g>
</svg>
