<?xml version="1.0" encoding="utf-8"?>
<!-- Generator: Adobe Illustrator 16.0.0, SVG Export Plug-In . SVG Version: 6.00 Build 0)  -->
<!DOCTYPE svg PUBLIC "-//W3C//DTD SVG 1.1//EN" "http://www.w3.org/Graphics/SVG/1.1/DTD/svg11.dtd">
<svg version="1.1" id="Layer_1" xmlns="http://www.w3.org/2000/svg" xmlns:xlink="http://www.w3.org/1999/xlink" x="0px" y="0px"
	 width="38.015px" height="38.015px" viewBox="0 0 38.015 38.015" enable-background="new 0 0 38.015 38.015" xml:space="preserve">
<path fill="#D3C596" d="M0,19.007c0,10.498,8.51,19.008,19.008,19.008c10.497,0,19.006-8.51,19.006-19.008
	C38.015,8.51,29.505,0,19.008,0C8.51,0,0,8.51,0,19.007z M23.484,6.708l-0.005,0.013l-1.008,2.77l3.045,1.76l1.908-2.263
	c2.305,1.938,3.932,4.658,4.473,7.752l-0.016,0.004l-2.9,0.51v3.52l2.913,0.516c-0.544,3.098-2.177,5.816-4.488,7.754l-1.898-2.271
	l-3.047,1.758l1.013,2.782c-1.399,0.508-2.91,0.784-4.485,0.781c-1.571-0.002-3.077-0.282-4.472-0.792l1.018-2.784l-3.045-1.756
	l-1.9,2.262h-0.001c-2.302-1.941-3.926-4.659-4.465-7.751l2.913-0.513v-3.514l-2.911-0.516c0.544-3.089,2.169-5.807,4.471-7.742
	L10.6,8.985l1.898,2.265l3.044-1.759l-1.009-2.775l-0.009-0.004c1.404-0.514,2.921-0.793,4.503-0.789
	C20.593,5.925,22.094,6.202,23.484,6.708z"/>
</svg>
