<?xml version="1.0" encoding="utf-8"?>
<!-- Generator: Adobe Illustrator 16.0.0, SVG Export Plug-In . SVG Version: 6.00 Build 0)  -->
<!DOCTYPE svg PUBLIC "-//W3C//DTD SVG 1.1//EN" "http://www.w3.org/Graphics/SVG/1.1/DTD/svg11.dtd">
<svg version="1.1" id="Layer_1" xmlns="http://www.w3.org/2000/svg" xmlns:xlink="http://www.w3.org/1999/xlink" x="0px" y="0px"
	 width="592.61px" height="167.576px" viewBox="0 0 592.61 167.576" enable-background="new 0 0 592.61 167.576"
	 xml:space="preserve">
<g>
	<g>
		<path fill="#6C6145" d="M426.871,0H167.794c-2.499,0-4.523,2.025-4.523,4.521v158.533c0,2.498,2.024,4.521,4.523,4.521h259.077
			c2.497,0,4.521-2.023,4.521-4.521V4.521C431.393,2.025,429.368,0,426.871,0z M419.425,113.58c0,4.701-3.811,8.512-8.512,8.512
			H182.157c-4.7,0-8.511-3.811-8.511-8.512V19.684c0-4.701,3.811-8.512,8.511-8.512h228.756c4.701,0,8.512,3.811,8.512,8.512V113.58
			z"/>
		<path display="none" fill="#FFFFFF" d="M410.913,11.172H182.157c-4.7,0-8.511,3.811-8.511,8.512v93.896
			c0,4.701,3.811,8.512,8.511,8.512h228.756c4.701,0,8.512-3.811,8.512-8.512V19.684C419.425,14.982,415.614,11.172,410.913,11.172z
			 M240.903,97.996c-10.499,0-19.008-8.51-19.008-19.006c0-10.499,8.51-19.009,19.008-19.009c10.497,0,19.006,8.51,19.006,19.009
			C259.909,89.486,251.399,97.996,240.903,97.996z M352.654,97.996c-10.499,0-19.008-8.51-19.008-19.006
			c0-10.499,8.51-19.009,19.008-19.009c10.497,0,19.007,8.51,19.007,19.009C371.661,89.486,363.151,97.996,352.654,97.996z"/>
		<path fill="#6C6145" d="M207.16,59.981v38.015h181.142V59.981H207.16z M240.903,96.545c-9.696,0-17.556-7.859-17.556-17.555
			c0-9.696,7.86-17.557,17.556-17.557s17.555,7.86,17.555,17.557C258.458,88.686,250.599,96.545,240.903,96.545z M352.654,95.485
			c-9.111,0-16.497-7.386-16.497-16.495c0-9.111,7.386-16.496,16.497-16.496c9.11,0,16.496,7.385,16.496,16.496
			C369.15,88.1,361.764,95.485,352.654,95.485z"/>
	</g>
	<g>
		<g>
			<text transform="matrix(1.1 0 0 1 0 96.3174)" fill="#6C6145" font-family="'Consolas-Bold'" font-size="49.4749">B</text>
			<text transform="matrix(1.1 0 0 1 110.2949 95.6895)" fill="#6C6145" font-family="'Consolas-Bold'" font-size="49.4749">R</text>
			<g>
				<text transform="matrix(1.1 0 0 1 446.9634 96.3174)" fill="#6C6145" font-family="'Consolas-Bold'" font-size="49.4749">V</text>
			</g>
			<text transform="matrix(1.1 0 0 1 562.688 94.8906)" fill="#6C6145" font-family="'Consolas-Bold'" font-size="49.4749">E</text>
		</g>
		<g>
			<path display="none" fill="#D3C596" d="M333.646,78.988c0,10.498,8.51,19.008,19.007,19.008c10.495,0,19.008-8.51,19.008-19.008
				c0-10.497-8.513-19.007-19.008-19.007C342.156,59.981,333.646,68.491,333.646,78.988z M357.127,66.689l-0.003,0.013l-1.01,2.77
				l3.047,1.76l1.906-2.263c2.305,1.938,3.932,4.658,4.473,7.752l-0.016,0.004l-2.9,0.51v3.52l2.915,0.516
				c-0.545,3.098-2.177,5.816-4.49,7.754l-1.898-2.271l-3.045,1.758l1.012,2.782c-1.4,0.508-2.909,0.784-4.484,0.781
				c-1.571-0.002-3.076-0.282-4.471-0.792l1.018-2.784l-3.044-1.756l-1.901,2.262h-0.001c-2.302-1.941-3.926-4.659-4.465-7.751
				l2.913-0.513v-3.514l-2.91-0.516c0.542-3.089,2.168-5.807,4.472-7.742l0.003-0.002l1.898,2.265l3.045-1.759l-1.01-2.775
				l-0.009-0.004c1.404-0.514,2.922-0.793,4.502-0.789C354.238,65.906,355.737,66.184,357.127,66.689z"/>
			<path display="none" fill="#D3C596" d="M221.895,78.988c0,10.498,8.51,19.008,19.008,19.008c10.497,0,19.006-8.51,19.006-19.008
				c0-10.497-8.51-19.007-19.006-19.007C230.404,59.981,221.895,68.491,221.895,78.988z M245.379,66.689l-0.005,0.013l-1.008,2.77
				l3.045,1.76l1.908-2.263c2.305,1.938,3.932,4.658,4.473,7.752l-0.016,0.004l-2.9,0.51v3.52l2.913,0.516
				c-0.544,3.098-2.177,5.816-4.488,7.754l-1.898-2.271l-3.047,1.758l1.013,2.782c-1.399,0.508-2.91,0.784-4.485,0.781
				c-1.571-0.002-3.077-0.282-4.472-0.792l1.018-2.784l-3.045-1.756l-1.9,2.262h-0.001c-2.302-1.941-3.926-4.659-4.465-7.751
				l2.913-0.513v-3.514l-2.911-0.516c0.544-3.089,2.169-5.807,4.471-7.742l0.005-0.002l1.898,2.265l3.044-1.759l-1.009-2.775
				l-0.009-0.004c1.404-0.514,2.921-0.793,4.503-0.789C242.488,65.906,243.989,66.184,245.379,66.689z"/>
		</g>
	</g>
</g>
</svg>
