<?xml version="1.0" encoding="utf-8"?>
<!-- Generator: Adobe Illustrator 16.0.0, SVG Export Plug-In . SVG Version: 6.00 Build 0)  -->
<!DOCTYPE svg PUBLIC "-//W3C//DTD SVG 1.1//EN" "http://www.w3.org/Graphics/SVG/1.1/DTD/svg11.dtd">
<svg version="1.1" id="broove-logo-ep" xmlns="http://www.w3.org/2000/svg" xmlns:xlink="http://www.w3.org/1999/xlink" x="0px"
	 y="0px" width="585.063px" height="167.576px" viewBox="0 0 585.063 167.576" enable-background="new 0 0 585.063 167.576"
	 xml:space="preserve">
<g>
	<g>
		<path fill="#6C6145" d="M423.443,0H164.366c-2.499,0-4.523,2.025-4.523,4.521v158.533c0,2.498,2.024,4.521,4.523,4.521h259.077
			c2.497,0,4.521-2.023,4.521-4.521V4.521C427.965,2.025,425.94,0,423.443,0z M415.997,113.58c0,4.701-3.811,8.512-8.512,8.512
			H178.729c-4.7,0-8.511-3.811-8.511-8.512V19.684c0-4.701,3.811-8.512,8.511-8.512h228.756c4.701,0,8.512,3.811,8.512,8.512V113.58
			z"/>
		<path fill-rule="evenodd" clip-rule="evenodd" fill="#6C6145" d="M386.26,63.294c0.043-2.821-0.734-3.628-3.595-3.624
			c-58.614,0.082-117.228,0.093-175.841-0.021c-3.361-0.006-3.72,1.255-3.682,4.049c0.138,10.156,0.235,20.319-0.041,30.469
			c-0.102,3.722,0.858,4.682,4.626,4.659c28.806-0.174,57.614-0.095,86.421-0.095c29.307,0,58.614-0.045,87.92,0.065
			c3.125,0.012,4.29-0.616,4.213-4.033C386.045,84.278,386.1,73.783,386.26,63.294z M237.586,96.719
			c-8.572-0.013-17.134-8.463-17.253-16.941c-0.125-8.974,8.158-17.063,17.457-17.046c9.292,0.017,16.409,7.199,16.406,16.56
			C255.283,90.28,244.877,96.73,237.586,96.719z M351.807,96.707c-8.702,0.166-17.801-8.885-17.471-17.208
			c0.361-9.115,8.222-16.375,17.227-16.883c7.342-0.414,18.335,8.35,16.634,16.454C369.331,90.071,359.315,96.565,351.807,96.707z"
			/>
	</g>
	<g>
		<g>
			<g>
				<path fill="#6C6145" d="M0,96.317V64.743h11.214c3.95,0,6.913,0.628,8.889,1.884c1.975,1.256,2.963,3.157,2.963,5.701
					c0,0.79-0.102,1.559-0.306,2.307c-0.204,0.749-0.518,1.438-0.943,2.065c-0.425,0.628-0.957,1.184-1.594,1.667
					c-0.638,0.483-1.391,0.862-2.259,1.135c0.868,0.129,1.696,0.383,2.484,0.761s1.479,0.87,2.073,1.474s1.063,1.316,1.409,2.138
					c0.345,0.822,0.518,1.74,0.518,2.754c0,3.221-1.187,5.641-3.561,7.259s-5.802,2.428-10.284,2.428H0z M16.263,73.368
					c0-0.596-0.106-1.135-0.319-1.619c-0.212-0.483-0.554-0.894-1.023-1.232c-0.47-0.338-1.072-0.6-1.807-0.785
					c-0.735-0.185-1.625-0.278-2.671-0.278H6.484v8.358h3.959c1.063,0,1.962-0.117,2.697-0.35c0.735-0.233,1.337-0.556,1.807-0.966
					c0.469-0.411,0.806-0.882,1.01-1.413C16.161,74.551,16.263,73.98,16.263,73.368z M11.055,91.462c1.045,0,1.962-0.121,2.75-0.363
					c0.788-0.241,1.448-0.575,1.979-1.002c0.532-0.426,0.935-0.93,1.209-1.51c0.274-0.58,0.412-1.2,0.412-1.86
					c0-1.369-0.563-2.439-1.688-3.213c-1.125-0.773-2.848-1.159-5.168-1.159H6.484v9.107H11.055z"/>
			</g>
			<g>
				<path fill="#6C6145" d="M127.807,95.689l-4.89-10.146c-0.461-0.966-1.103-1.695-1.927-2.187
					c-0.824-0.491-1.793-0.737-2.91-0.737h-1.249v13.069h-6.537V64.115h10.125c1.914,0,3.649,0.149,5.208,0.447
					c1.559,0.298,2.888,0.793,3.986,1.485c1.098,0.693,1.944,1.595,2.538,2.706c0.593,1.111,0.89,2.472,0.89,4.083
					c0,1.16-0.186,2.19-0.558,3.092s-0.895,1.679-1.568,2.331s-1.475,1.18-2.405,1.582c-0.93,0.403-1.944,0.685-3.042,0.846
					c0.85,0.161,1.629,0.6,2.338,1.316c0.708,0.717,1.417,1.751,2.126,3.104l5.554,10.581H127.807z M126.186,73.416
					c0-1.546-0.541-2.657-1.621-3.333c-1.081-0.677-2.702-1.015-4.863-1.015h-2.87v8.914h2.658c1.01,0,1.926-0.097,2.75-0.29
					s1.528-0.483,2.113-0.87c0.584-0.386,1.036-0.865,1.355-1.438C126.027,74.813,126.186,74.157,126.186,73.416z"/>
			</g>
			<g>
				<g>
					<path fill="#6C6145" d="M462.801,96.317h-8.663l-10.603-31.574h7.414l5.873,19.012l1.887,6.233l1.966-6.595l5.82-18.65h6.962
						L462.801,96.317z"/>
				</g>
			</g>
			<g>
				<path fill="#6C6145" d="M564.15,94.891V63.316h20.913v5.025h-14.27v7.851h13.606v4.904h-13.606v8.769h14.27v5.025H564.15z"/>
			</g>
		</g>
		<path id="miolo-esq" fill="#D1C498" d="M221.343,79.676c0,8.945,7.25,16.195,16.194,16.195c8.942,0,16.196-7.25,16.196-16.195
			c0-8.944-7.254-16.194-16.196-16.194C228.594,63.481,221.343,70.732,221.343,79.676z M241.35,69.197l-0.003,0.011l-0.86,2.36
			l2.596,1.5l1.624-1.929c1.964,1.652,3.35,3.97,3.812,6.605l-0.014,0.004l-2.471,0.434v2.999l2.483,0.439
			c-0.465,2.639-1.855,4.956-3.826,6.606l-1.617-1.934l-2.596,1.497l0.863,2.371c-1.193,0.433-2.479,0.667-3.821,0.665
			c-1.338-0.002-2.622-0.24-3.81-0.674l0.867-2.372l-2.594-1.496l-1.619,1.927h-0.001c-1.962-1.654-3.346-3.97-3.805-6.604
			l2.482-0.437v-2.994l-2.48-0.439c0.463-2.631,1.848-4.947,3.811-6.596l0.002-0.002l1.618,1.931l2.594-1.499l-0.859-2.364
			l-0.008-0.004c1.196-0.437,2.49-0.675,3.836-0.672C238.888,68.53,240.166,68.766,241.35,69.197z"/>
		<g>
			<path id="miolo-dir" fill="#D1C498" d="M335.343,79.676c0,8.945,7.25,16.195,16.194,16.195c8.942,0,16.196-7.25,16.196-16.195
				c0-8.944-7.254-16.194-16.196-16.194C342.594,63.481,335.343,70.732,335.343,79.676z M355.35,69.197l-0.003,0.011l-0.86,2.36
				l2.596,1.5l1.624-1.929c1.964,1.652,3.35,3.97,3.812,6.605l-0.014,0.004l-2.471,0.434v2.999l2.483,0.439
				c-0.465,2.639-1.855,4.956-3.826,6.606l-1.617-1.934l-2.596,1.497l0.863,2.371c-1.193,0.433-2.479,0.667-3.821,0.665
				c-1.338-0.002-2.622-0.24-3.81-0.674l0.867-2.372l-2.594-1.496l-1.619,1.927h-0.001c-1.962-1.654-3.346-3.97-3.805-6.604
				l2.482-0.437v-2.994l-2.48-0.439c0.463-2.631,1.848-4.947,3.811-6.596l0.002-0.002l1.618,1.931l2.594-1.499l-0.859-2.364
				l-0.008-0.004c1.196-0.437,2.49-0.675,3.836-0.672C352.888,68.53,354.166,68.766,355.35,69.197z"/>
		</g>
	</g>
</g>
</svg>
