<?xml version="1.0" encoding="utf-8"?>
<!-- Generator: Adobe Illustrator 16.0.0, SVG Export Plug-In . SVG Version: 6.00 Build 0)  -->
<!DOCTYPE svg PUBLIC "-//W3C//DTD SVG 1.1//EN" "http://www.w3.org/Graphics/SVG/1.1/DTD/svg11.dtd">
<svg version="1.1" id="Layer_1" xmlns="http://www.w3.org/2000/svg" xmlns:xlink="http://www.w3.org/1999/xlink" x="0px" y="0px"
	 width="259.47px" height="295.582px" viewBox="0 0 259.47 295.582" enable-background="new 0 0 259.47 295.582"
	 xml:space="preserve">
<g>
	<path fill-rule="evenodd" clip-rule="evenodd" fill="#FFFFFF" d="M259.422,163.369c-0.022,18.117,0.007,36.234-0.108,54.351
		c-0.027,4.262-3.34,6.149-6.59,8.008c-30.069,17.196-60.127,34.413-90.168,51.657c-6.324,3.63-12.57,7.396-18.853,11.1
		c-4.605,2.715-9.196,5.461-14.334,7.098c-0.667,0-1.333,0-2,0c-13.771-7.973-27.512-15.997-41.37-23.816
		c-1.127-0.637-2.085-1.483-3.228-2.055c-2.812-3.693,0.531-5.072,2.709-6.459c9.4-5.983,19.109-11.457,28.811-16.932
		c33.02-18.633,65.652-37.926,98.239-57.3c13.291-7.902,26.451-16.028,39.93-23.614
		C254.608,164.195,256.702,162.681,259.422,163.369z"/>
	<path fill-rule="evenodd" clip-rule="evenodd" fill="#FFFFFF" d="M42.388,246.416c-12.838-7.269-25.695-14.504-38.501-21.828
		c-3.495-2-3.854-5.445-3.843-9.096c0.058-19.157,0.027-38.314,0.027-57.471c0-26.153,0.082-52.307-0.071-78.459
		c-0.03-5.042,1.613-8.337,6.112-10.889C44.809,46.727,83.455,24.689,121.992,2.465c5.254-3.031,9.751-3.579,14.679,0.134
		c4.743,3.574,10.722,5.304,14.836,9.842c1.629,2.321,0.466,4.442-0.466,6.585c-4.385,10.076-9.196,19.964-14.014,29.826
		c-19.51,39.941-37.316,80.669-56.205,120.896c-11.105,23.651-22.068,47.377-32.664,71.266
		C46.985,243.658,45.885,246.294,42.388,246.416z"/>
	<path fill-rule="evenodd" clip-rule="evenodd" d="M42.388,246.416c1.959-1.059,3.182-2.617,4.136-4.703
		c34.081-74.559,68.02-149.184,103.423-223.129c0.947-1.978,1.616-3.947,1.56-6.143c8.934,3.985,17.351,8.922,25.695,13.989
		c-2.893,2.587-4.941,5.736-6.539,9.271c-6.656,14.721-13.744,29.24-20.482,43.924c-1.606,3.5-0.744,5.523,2.513,7.283
		c16.266,8.791,32.659,17.348,49.049,25.899c16.688,8.706,33.138,17.87,50.041,26.166c2.833,1.391,5.595,3.001,7.488,5.688
		c0.05,6.235,0.1,12.472,0.149,18.707c-31.341,16.815-61.239,36.098-92.041,53.836c-26.947,15.518-53.857,31.097-80.748,46.712
		c-2.117,1.229-5.339,2.031-3.864,5.792C69.31,261.945,55.849,254.182,42.388,246.416z"/>
	<path fill-rule="evenodd" clip-rule="evenodd" fill="#FFFFFF" d="M259.272,144.662c-16.161-8.583-32.311-17.186-48.484-25.744
		c-19.57-10.354-39.11-20.768-58.782-30.926c-4.288-2.215-5.265-4.27-3.028-8.841c7.691-15.716,14.933-31.65,22.358-47.495
		c1.203-2.566,2.346-5.243,5.866-5.226c2.839,0.521,5.177,2.161,7.592,3.554c22.677,13.079,45.265,26.313,68.02,39.254
		c4.776,2.717,6.727,6.038,6.653,11.563C259.189,102.085,259.304,123.374,259.272,144.662z"/>
	<path fill-rule="evenodd" clip-rule="evenodd" fill="#FFFFFF" d="M229.62,154.314c-13.867,7.977-26.872,15.543-39.959,22.966
		c-35.252,19.994-70.54,39.927-105.812,59.884c-0.577,0.326-1.121,0.723-1.723,0.988c-1.749,0.773-3.748,2.625-5.394,0.992
		c-1.444-1.432,0.292-3.378,1.026-4.972c18.519-40.177,37.054-80.346,55.594-120.513c3.342-7.239,3.654-7.411,10.534-3.887
		c26.927,13.791,53.828,27.637,80.726,41.484C226.063,152.004,227.408,152.955,229.62,154.314z"/>
</g>
</svg>
