<?xml version="1.0" encoding="utf-8"?>
<!-- Generator: Adobe Illustrator 16.0.0, SVG Export Plug-In . SVG Version: 6.00 Build 0)  -->
<!DOCTYPE svg PUBLIC "-//W3C//DTD SVG 1.1//EN" "http://www.w3.org/Graphics/SVG/1.1/DTD/svg11.dtd">
<svg version="1.1" id="Layer_1" xmlns="http://www.w3.org/2000/svg" xmlns:xlink="http://www.w3.org/1999/xlink" x="0px" y="0px"
	 width="1000px" height="1000px" viewBox="0 0 1000 1000" enable-background="new 0 0 1000 1000" xml:space="preserve">
<g>
	<path fill-rule="evenodd" clip-rule="evenodd" fill="#BEB7A2" d="M500,521c-7.163-5.435-11.96-13.027-17.756-19.692
		C477.966,496.39,473.22,491.786,470,486c0-0.667,0-1.333,0-2c0.64-1.604,0.563-3.744,3-4c1,0,2,0,3,0
		c6.571,5.397,11.163,12.571,16.842,18.771c0.895,0.977,1.676,2.058,2.56,3.047c5.813,6.507,5.69,6.394,11.544-0.371
		C513.202,494.217,518.52,486.143,526,480c0.666,0,1.334,0,2,0c2.15,0.517,3.483,1.85,4,4c0,0.667,0,1.333,0,2
		c-9.416,12.168-18.914,24.265-30,35C501.334,521,500.666,521,500,521z"/>
	<path fill-rule="evenodd" clip-rule="evenodd" fill="#FEFEFE" d="M473.027,485.816c0.1-0.938-0.289-2.129,0.945-2.578
		c1.6-0.582,2.935-0.001,3.99,1.261c6.034,7.218,12.226,14.312,18.037,21.705c4.409,5.61,5.587,5.6,10.04-0.104
		c5.582-7.152,11.537-14.016,17.375-20.967c1.314-1.564,3.165-3.303,5.001-1.484c1.688,1.672,0.119,3.886-1.085,5.347
		c-4.309,5.229-8.851,10.265-13.241,15.428c-2.884,3.391-5.733,6.818-8.466,10.332c-3.273,4.21-5.794,4.213-9.12,0.199
		c-7.059-8.517-14.249-16.925-21.412-25.354C474.129,488.468,472.815,487.575,473.027,485.816z"/>
</g>
</svg>
